<mxfile host="app.diagrams.net" agent="Mozilla/5.0 (X11; Ubuntu; Linux x86_64; rv:131.0) Gecko/20100101 Firefox/131.0" version="24.8.0">
  <diagram name="Page-1" id="vzkklE_Jtss3xE8JcJjk">
    <mxGraphModel>
      <root>
        <mxCell id="0" />
        <mxCell id="1" parent="0" />
        <mxCell id="2" value="Detailed Project Flow" style="whiteSpace=wrap;strokeWidth=2;verticalAlign=top;" vertex="1" parent="1">
          <mxGeometry x="8" y="8" width="861" height="240" as="geometry" />
        </mxCell>
        <mxCell id="3" value="Frontend &amp; Input Acquisition" style="ellipse;aspect=fixed;strokeWidth=2;whiteSpace=wrap;" vertex="1" parent="2">
          <mxGeometry x="46" y="43" width="170" height="170" as="geometry" />
        </mxCell>
        <mxCell id="4" value="User Interaction" style="shape=hexagon;perimeter=hexagonPerimeter2;fixedSize=1;strokeWidth=2;whiteSpace=wrap;" vertex="1" parent="2">
          <mxGeometry x="290" y="111" width="145" height="34" as="geometry" />
        </mxCell>
        <mxCell id="5" value="Upload Media" style="shape=hexagon;perimeter=hexagonPerimeter2;fixedSize=1;strokeWidth=2;whiteSpace=wrap;" vertex="1" parent="2">
          <mxGeometry x="510" y="111" width="131" height="34" as="geometry" />
        </mxCell>
        <mxCell id="6" value="Input Types" style="shape=hexagon;perimeter=hexagonPerimeter2;fixedSize=1;strokeWidth=2;whiteSpace=wrap;" vertex="1" parent="2">
          <mxGeometry x="716" y="111" width="115" height="34" as="geometry" />
        </mxCell>
        <mxCell id="7" value="" style="curved=1;startArrow=none;endArrow=block;exitX=1;exitY=0.5;entryX=0;entryY=0.5;" edge="1" parent="2" source="3" target="4">
          <mxGeometry relative="1" as="geometry">
            <Array as="points" />
          </mxGeometry>
        </mxCell>
        <mxCell id="8" value="" style="curved=1;startArrow=none;endArrow=block;exitX=1;exitY=0.5;entryX=0;entryY=0.5;" edge="1" parent="2" source="4" target="5">
          <mxGeometry relative="1" as="geometry">
            <Array as="points" />
          </mxGeometry>
        </mxCell>
        <mxCell id="9" value="" style="curved=1;startArrow=none;endArrow=block;exitX=1;exitY=0.5;entryX=0;entryY=0.5;" edge="1" parent="2" source="5" target="6">
          <mxGeometry relative="1" as="geometry">
            <Array as="points" />
          </mxGeometry>
        </mxCell>
      </root>
    </mxGraphModel>
  </diagram>
</mxfile>
